<?xml version="1.0" encoding="utf-8"?>
<!-- Generator: Adobe Illustrator 25.2.1, SVG Export Plug-In . SVG Version: 6.00 Build 0)  -->
<svg version="1.1" id="Layer_1" xmlns="http://www.w3.org/2000/svg" xmlns:xlink="http://www.w3.org/1999/xlink" x="0px" y="0px"
	 viewBox="0 0 120 37.72" style="enable-background:new 0 0 120 37.72;" xml:space="preserve">
<style type="text/css">
	.st0{fill:#8A8A8A;}
</style>
<g>
	<g>
		<path class="st0" d="M12.73,16.34c-3.72-0.12-6.66-3.17-6.66-6.89V0.2c0-0.07,0-0.13,0.01-0.2C3.47,0,0,3.64,0,8.55v28.47h6.07
			v-20.2l7.64-0.16v-0.32C13.66,16.32,13.28,16.36,12.73,16.34z"/>
		<path class="st0" d="M16.81,2.83c-0.22-1.42-1.37-2.57-2.79-2.79c-2.27-0.35-4.2,1.58-3.85,3.85c0.22,1.41,1.37,2.57,2.79,2.79
			C15.23,7.03,17.16,5.1,16.81,2.83z"/>
	</g>
	<path class="st0" d="M54.53,2.49l-0.77,0.13v34.4h-7.58V3.89V0.26c0,0,4.47,0.8,8.36,1.99V2.49z"/>
	<path class="st0" d="M78.52,14.83L66.78,37.02h-0.51l0.22-0.4l-9.86-21.78h7.27c-0.03,0.32,0.02,0.64,0.12,0.82l6.11,13.25
		l0.21,0.42L78,14.83H78.52z"/>
	<g>
		<path class="st0" d="M120,30.36c0-1.22-0.29-2.31-0.9-3.33c-0.61-1.02-1.42-1.83-2.41-2.41l-8.44-4.54c-1-0.5-1.55-1.48-1.56-2.6
			c-0.42,0.5-0.76,1.06-1.02,1.67c-0.34,0.81-0.52,1.69-0.52,2.62c0,1.22,0.3,2.31,0.9,3.33c0.61,1.02,1.42,1.83,2.41,2.41
			l8.44,4.55c0.84,0.42,1.36,1.18,1.51,2.08c-0.33,0.42-0.7,0.81-1.11,1.13c-0.44,0.35-0.93,0.62-1.43,0.85
			c-0.06,0.26-0.16,0.52-0.3,0.76c0.61-0.24,1.18-0.56,1.7-0.98c0.58-0.46,1.08-1.02,1.49-1.67c0.28-0.39,0.52-0.8,0.72-1.25
			C119.83,32.16,120,31.28,120,30.36z"/>
		<path class="st0" d="M109.74,30.34c-2.27-0.35-4.19,1.58-3.85,3.85c0.22,1.42,1.37,2.57,2.79,2.79c2.28,0.35,4.21-1.58,3.85-3.86
			C112.32,31.71,111.16,30.55,109.74,30.34z"/>
		<path class="st0" d="M112.1,18.9c1.44,0.35,2.7-0.92,2.35-2.36c-0.16-0.68-0.72-1.23-1.39-1.39c-1.44-0.35-2.7,0.92-2.35,2.35
			C110.87,18.18,111.42,18.73,112.1,18.9z"/>
	</g>
	<g>
		<path class="st0" d="M102.35,21.67c-0.69-1.67-1.38-2.78-2.33-3.73c-1.07-1.08-2.32-1.91-3.71-2.49c-0.39-0.16-0.78-0.3-1.18-0.42
			c0.73,0.87,1.16,1.81,1.3,2.81c0.05,0.35,0.11,0.71,0.18,1.09c0.17,0.99,0.37,2.12,0.37,3.37v3.63l-4.29,0.14v0.34h4.29h0h6.07
			v-0.3C103.06,24.2,102.84,22.88,102.35,21.67z"/>
		<path class="st0" d="M87.83,15.47c-1.41,0.59-2.66,1.42-3.72,2.47c-1.06,1.04-1.92,2.29-2.55,3.69c-0.63,1.39-0.94,2.92-0.94,4.53
			c0,1.5,0.31,2.95,0.91,4.31c0.61,1.37,1.46,2.61,2.5,3.67c1.05,1.06,2.28,1.91,3.68,2.52c0.32,0.14,0.64,0.25,0.96,0.36
			c-1.69-3.26-1.68-18.59,0.05-21.87C88.42,15.24,88.12,15.35,87.83,15.47z"/>
	</g>
	<g>
		<path class="st0" d="M28.23,15.25c0.21-0.34,0.42-0.63,0.62-0.83c-0.32,0.01-0.63,0.03-0.95,0.07c-0.92,0.12-1.81,0.34-2.66,0.65
			c0,0,0-0.01,0.01-0.01c-0.3,0.1-0.6,0.2-0.9,0.33c-1.41,0.59-2.66,1.42-3.72,2.47c-1.06,1.04-1.92,2.29-2.55,3.69
			c-0.63,1.39-0.94,2.92-0.94,4.53c0,1.5,0.31,2.95,0.91,4.31c0.61,1.37,1.46,2.61,2.5,3.67c1.05,1.06,2.28,1.91,3.68,2.52
			c0.32,0.14,0.64,0.25,0.96,0.36c0,0,0-0.01-0.01-0.02c0.86,0.32,1.76,0.55,2.7,0.67c0.32,0.04,0.63,0.06,0.95,0.07
			c-0.2-0.21-0.4-0.49-0.62-0.83c-1.1,0.03-2.18-0.1-3.23-0.36c-1.43-3.87-1.41-17.04,0.05-20.93
			C26.08,15.34,27.14,15.22,28.23,15.25z"/>
		<path class="st0" d="M44.06,17.32v-0.24c-3.88-1.19-8.36-1.99-8.36-1.99v1.8v1.83v16.47v1.83c0,0,4.47-0.8,8.36-1.99v-0.24
			l-0.77-0.13v-17.2L44.06,17.32z"/>
	</g>
</g>
</svg>
