<?xml version="1.0" encoding="utf-8"?>
<!-- Generator: Adobe Illustrator 25.2.1, SVG Export Plug-In . SVG Version: 6.00 Build 0)  -->
<svg version="1.1" id="Layer_1" xmlns="http://www.w3.org/2000/svg" xmlns:xlink="http://www.w3.org/1999/xlink" x="0px" y="0px"
	 viewBox="0 0 150 46.75" style="enable-background:new 0 0 150 46.75;" xml:space="preserve">
<style type="text/css">
	.st0{fill:#8A8A8A;}
</style>
<g>
	<g>
		<path class="st0" d="M15.91,20.1c-4.65-0.15-8.32-3.96-8.32-8.61V-0.07c0-0.09,0-0.16,0.01-0.25C4.34-0.32,0,4.23,0,10.36v35.59
			h7.59V20.7l9.55-0.2v-0.4C17.08,20.07,16.6,20.12,15.91,20.1z"/>
		<path class="st0" d="M21.01,3.21C20.74,1.44,19.3,0,17.52-0.28c-2.84-0.44-5.25,1.98-4.81,4.81c0.28,1.76,1.71,3.21,3.49,3.49
			C19.04,8.46,21.45,6.05,21.01,3.21z"/>
	</g>
	<path class="st0" d="M68.16,2.79L67.2,2.95v43h-9.47V4.54V0c0,0,5.59,1,10.45,2.49v0.3H68.16z"/>
	<path class="st0" d="M98.15,18.21L83.47,45.95h-0.64l0.28-0.5L70.79,18.22h9.09c-0.04,0.4,0.02,0.8,0.15,1.02l7.64,16.56l0.26,0.53
		l9.58-18.12H98.15z"/>
	<g>
		<path class="st0" d="M150,37.62c0-1.52-0.36-2.89-1.12-4.16s-1.77-2.29-3.01-3.01l-10.55-5.67c-1.25-0.62-1.94-1.85-1.95-3.25
			c-0.52,0.62-0.95,1.32-1.27,2.09c-0.42,1.01-0.65,2.11-0.65,3.27c0,1.52,0.38,2.89,1.12,4.16c0.76,1.27,1.77,2.29,3.01,3.01
			l10.55,5.69c1.05,0.52,1.7,1.48,1.89,2.6c-0.41,0.52-0.88,1.01-1.39,1.41c-0.55,0.44-1.16,0.77-1.79,1.06
			c-0.07,0.33-0.2,0.65-0.38,0.95c0.76-0.3,1.48-0.7,2.12-1.23c0.72-0.57,1.35-1.27,1.86-2.09c0.35-0.49,0.65-1,0.9-1.56
			C149.79,39.88,150,38.78,150,37.62z"/>
		<path class="st0" d="M137.18,37.6c-2.84-0.44-5.24,1.98-4.81,4.81c0.27,1.77,1.71,3.21,3.49,3.49c2.85,0.44,5.26-1.98,4.81-4.83
			C140.4,39.31,138.95,37.86,137.18,37.6z"/>
		<path class="st0" d="M140.12,23.3c1.8,0.44,3.38-1.15,2.94-2.95c-0.2-0.85-0.9-1.54-1.74-1.74c-1.8-0.44-3.38,1.15-2.94,2.94
			C138.59,22.4,139.27,23.09,140.12,23.3z"/>
	</g>
	<g>
		<path class="st0" d="M127.94,26.76c-0.86-2.09-1.72-3.48-2.91-4.66c-1.34-1.35-2.9-2.39-4.64-3.11c-0.49-0.2-0.97-0.38-1.47-0.52
			c0.91,1.09,1.45,2.26,1.62,3.51c0.06,0.44,0.14,0.89,0.22,1.36c0.21,1.24,0.46,2.65,0.46,4.21v4.54l-5.36,0.17v0.42h5.36l0,0h7.59
			v-0.38C128.82,29.93,128.55,28.27,127.94,26.76z"/>
		<path class="st0" d="M109.79,19.01c-1.76,0.74-3.33,1.77-4.65,3.09c-1.32,1.3-2.4,2.86-3.19,4.61c-0.79,1.74-1.18,3.65-1.18,5.66
			c0,1.88,0.39,3.69,1.14,5.39c0.76,1.71,1.82,3.26,3.12,4.59c1.31,1.33,2.85,2.39,4.6,3.15c0.4,0.17,0.8,0.31,1.2,0.45
			c-2.11-4.07-2.1-23.24,0.06-27.34C110.52,18.73,110.15,18.86,109.79,19.01z"/>
	</g>
	<g>
		<path class="st0" d="M35.29,18.74c0.26-0.42,0.53-0.79,0.78-1.04c-0.4,0.01-0.79,0.04-1.19,0.09c-1.15,0.15-2.26,0.42-3.33,0.81
			c0,0,0-0.01,0.01-0.01c-0.38,0.12-0.75,0.25-1.12,0.41c-1.76,0.74-3.32,1.78-4.65,3.09c-1.33,1.3-2.4,2.86-3.19,4.61
			c-0.79,1.74-1.18,3.65-1.18,5.66c0,1.88,0.39,3.69,1.14,5.39c0.76,1.71,1.83,3.26,3.12,4.59c1.31,1.33,2.85,2.39,4.6,3.15
			c0.4,0.17,0.8,0.31,1.2,0.45c0,0,0-0.01-0.01-0.02c1.08,0.4,2.2,0.69,3.38,0.84c0.4,0.05,0.79,0.08,1.19,0.09
			c-0.25-0.26-0.5-0.61-0.78-1.04c-1.38,0.04-2.72-0.12-4.04-0.45c-1.79-4.84-1.76-21.3,0.06-26.16
			C32.6,18.85,33.92,18.7,35.29,18.74z"/>
		<path class="st0" d="M55.08,21.32v-0.3c-4.85-1.49-10.45-2.49-10.45-2.49v2.25v2.29v20.59v2.29c0,0,5.59-1,10.45-2.49v-0.3
			L54.11,43V21.5L55.08,21.32z"/>
	</g>
</g>
</svg>
